<mxfile host="app.diagrams.net" modified="2021-06-18T09:39:48.229Z" agent="5.0 (Windows NT 10.0; Win64; x64) AppleWebKit/537.36 (KHTML, like Gecko) Chrome/91.0.4472.114 Safari/537.36" etag="4VVqbJD_TLxrQPpZ-i9a" version="14.7.7" type="github">
  <diagram id="6ir-iUJybDonLYdV4ZPh" name="Page-1">
    <mxGraphModel dx="868" dy="460" grid="1" gridSize="10" guides="1" tooltips="1" connect="1" arrows="1" fold="1" page="1" pageScale="1" pageWidth="827" pageHeight="1169" math="0" shadow="0">
      <root>
        <mxCell id="0" />
        <mxCell id="1" parent="0" />
        <mxCell id="FarxpKgZHKkkfBqwm3aO-5" value="Client A" style="shape=umlLifeline;perimeter=lifelinePerimeter;whiteSpace=wrap;html=1;container=1;collapsible=0;recursiveResize=0;outlineConnect=0;" parent="1" vertex="1">
          <mxGeometry x="20" y="30" width="100" height="300" as="geometry" />
        </mxCell>
        <mxCell id="FarxpKgZHKkkfBqwm3aO-7" value="Server" style="shape=umlLifeline;perimeter=lifelinePerimeter;whiteSpace=wrap;html=1;container=1;collapsible=0;recursiveResize=0;outlineConnect=0;" parent="1" vertex="1">
          <mxGeometry x="363.5" y="30" width="100" height="280" as="geometry" />
        </mxCell>
        <mxCell id="ew0XSLaMeLpF_alBr4-t-1" value="Client B" style="shape=umlLifeline;perimeter=lifelinePerimeter;whiteSpace=wrap;html=1;container=1;collapsible=0;recursiveResize=0;outlineConnect=0;" parent="1" vertex="1">
          <mxGeometry x="710" y="30" width="117" height="310" as="geometry" />
        </mxCell>
        <mxCell id="YKbFxFgqCVOi-oBd9TnE-9" value="remove AB" style="text;html=1;align=center;verticalAlign=middle;resizable=0;points=[];autosize=1;strokeColor=none;labelBackgroundColor=#ffffff;" parent="ew0XSLaMeLpF_alBr4-t-1" vertex="1">
          <mxGeometry x="22" y="270" width="70" height="20" as="geometry" />
        </mxCell>
        <mxCell id="ew0XSLaMeLpF_alBr4-t-2" value="" style="endArrow=classic;html=1;" parent="1" edge="1">
          <mxGeometry width="50" height="50" relative="1" as="geometry">
            <mxPoint x="69.5" y="112" as="sourcePoint" />
            <mxPoint x="413" y="112" as="targetPoint" />
          </mxGeometry>
        </mxCell>
        <mxCell id="ew0XSLaMeLpF_alBr4-t-9" value="M1: 3, { 3, {&quot;message&quot;}&lt;sub&gt;AB&lt;/sub&gt;}&lt;sub&gt;SA&lt;/sub&gt;" style="edgeLabel;html=1;align=center;verticalAlign=middle;resizable=0;points=[];" parent="ew0XSLaMeLpF_alBr4-t-2" vertex="1" connectable="0">
          <mxGeometry x="-0.0597" y="-1" relative="1" as="geometry">
            <mxPoint x="2" y="-11" as="offset" />
          </mxGeometry>
        </mxCell>
        <mxCell id="ew0XSLaMeLpF_alBr4-t-3" value="" style="endArrow=classic;html=1;" parent="1" edge="1">
          <mxGeometry width="50" height="50" relative="1" as="geometry">
            <mxPoint x="69.5" y="240" as="sourcePoint" />
            <mxPoint x="413" y="240" as="targetPoint" />
          </mxGeometry>
        </mxCell>
        <mxCell id="YKbFxFgqCVOi-oBd9TnE-3" value="Mn: 5, { 5, {&quot;!deh&quot;}&lt;sub&gt;AB &lt;/sub&gt;} &lt;sub&gt;SA&lt;/sub&gt;" style="edgeLabel;html=1;align=center;verticalAlign=middle;resizable=0;points=[];" parent="ew0XSLaMeLpF_alBr4-t-3" vertex="1" connectable="0">
          <mxGeometry x="-0.2402" y="2" relative="1" as="geometry">
            <mxPoint x="31" y="-8" as="offset" />
          </mxGeometry>
        </mxCell>
        <mxCell id="ew0XSLaMeLpF_alBr4-t-5" value="" style="endArrow=classic;html=1;" parent="1" edge="1" target="ew0XSLaMeLpF_alBr4-t-1">
          <mxGeometry width="50" height="50" relative="1" as="geometry">
            <mxPoint x="413" y="121" as="sourcePoint" />
            <mxPoint x="759.5" y="121" as="targetPoint" />
          </mxGeometry>
        </mxCell>
        <mxCell id="ew0XSLaMeLpF_alBr4-t-11" value="M2: 3, { 3, {&quot;message&quot;}&lt;sub&gt;AB&lt;/sub&gt;}&lt;sub&gt;SB&lt;/sub&gt;" style="edgeLabel;html=1;align=center;verticalAlign=middle;resizable=0;points=[];" parent="ew0XSLaMeLpF_alBr4-t-5" vertex="1" connectable="0">
          <mxGeometry x="-0.0466" y="-2" relative="1" as="geometry">
            <mxPoint y="-11" as="offset" />
          </mxGeometry>
        </mxCell>
        <mxCell id="ew0XSLaMeLpF_alBr4-t-7" value="" style="endArrow=classic;html=1;" parent="1" edge="1" target="ew0XSLaMeLpF_alBr4-t-1">
          <mxGeometry width="50" height="50" relative="1" as="geometry">
            <mxPoint x="413" y="247" as="sourcePoint" />
            <mxPoint x="759.5" y="247" as="targetPoint" />
          </mxGeometry>
        </mxCell>
        <mxCell id="YKbFxFgqCVOi-oBd9TnE-4" value="Mn+1: 5, { 5, {&quot;!deh&quot;}&lt;sub&gt;AB&amp;nbsp;&lt;/sub&gt;}&amp;nbsp;&lt;sub&gt;SB&lt;/sub&gt;" style="edgeLabel;html=1;align=center;verticalAlign=middle;resizable=0;points=[];" parent="ew0XSLaMeLpF_alBr4-t-7" vertex="1" connectable="0">
          <mxGeometry x="-0.0649" y="-1" relative="1" as="geometry">
            <mxPoint x="10" y="-10" as="offset" />
          </mxGeometry>
        </mxCell>
        <mxCell id="ew0XSLaMeLpF_alBr4-t-17" value="delete the active chat" style="text;html=1;align=center;verticalAlign=middle;resizable=0;points=[];autosize=1;strokeColor=none;" parent="1" vertex="1">
          <mxGeometry x="348.5" y="310" width="130" height="20" as="geometry" />
        </mxCell>
        <mxCell id="YKbFxFgqCVOi-oBd9TnE-1" value="" style="shape=curlyBracket;whiteSpace=wrap;html=1;rounded=1;" parent="1" vertex="1">
          <mxGeometry x="40" y="116" width="20" height="120" as="geometry" />
        </mxCell>
        <mxCell id="YKbFxFgqCVOi-oBd9TnE-2" value="n messages" style="text;html=1;align=center;verticalAlign=middle;resizable=0;points=[];autosize=1;strokeColor=none;portConstraintRotation=1;rotation=-90;" parent="1" vertex="1">
          <mxGeometry x="-10" y="166" width="80" height="20" as="geometry" />
        </mxCell>
        <mxCell id="YKbFxFgqCVOi-oBd9TnE-5" value="remove client A from online user" style="text;html=1;align=center;verticalAlign=middle;resizable=0;points=[];autosize=1;strokeColor=none;" parent="1" vertex="1">
          <mxGeometry x="319" y="330" width="190" height="20" as="geometry" />
        </mxCell>
        <mxCell id="YKbFxFgqCVOi-oBd9TnE-6" value="logout from the app" style="text;html=1;align=center;verticalAlign=middle;resizable=0;points=[];autosize=1;strokeColor=none;labelBackgroundColor=#ffffff;" parent="1" vertex="1">
          <mxGeometry x="15" y="260" width="120" height="20" as="geometry" />
        </mxCell>
        <mxCell id="YKbFxFgqCVOi-oBd9TnE-7" value="return to main menu" style="text;html=1;align=center;verticalAlign=middle;resizable=0;points=[];autosize=1;strokeColor=none;labelBackgroundColor=#ffffff;" parent="1" vertex="1">
          <mxGeometry x="700" y="280" width="120" height="20" as="geometry" />
        </mxCell>
        <mxCell id="YKbFxFgqCVOi-oBd9TnE-8" value="remove SA" style="text;html=1;align=center;verticalAlign=middle;resizable=0;points=[];autosize=1;strokeColor=none;" parent="1" vertex="1">
          <mxGeometry x="379" y="350" width="70" height="20" as="geometry" />
        </mxCell>
      </root>
    </mxGraphModel>
  </diagram>
</mxfile>
